<svg version="1.1" id="Layer_1" xmlns="http://www.w3.org/2000/svg" xmlns:xlink="http://www.w3.org/1999/xlink" x="0px" y="0px"
	 width="100%" viewBox="0 0 1920 1920" enable-background="new 0 0 1920 1920" xml:space="preserve">
<path fill="none" opacity="1.000000" stroke="#000000" stroke-linecap="round" stroke-linejoin="round" stroke-width="15.000000"
	d="
M566.500000,1013.000000 
	C565.940247,1016.972290 563.093384,1019.053223 560.007019,1021.011047 
	C538.666321,1034.548340 517.868591,1048.869263 498.014893,1064.518921 
	C484.362793,1075.280029 471.190735,1086.578369 458.379791,1098.369385 
	C442.751495,1112.753662 428.527466,1128.312988 415.540344,1145.031372 
	C403.252686,1160.849121 392.777588,1177.878662 388.147919,1197.534790 
	C381.597656,1225.345215 389.530090,1248.956787 410.982758,1268.019409 
	C430.443176,1285.311523 453.888184,1294.402100 478.522034,1300.916626 
	C489.223999,1303.746826 500.088348,1306.174316 511.021454,1307.860962 
	C522.592712,1309.646240 534.318420,1310.518066 546.003418,1311.457642 
	C564.639343,1312.956421 583.328857,1312.572510 601.999817,1312.464844 
	C618.877808,1312.367432 635.679016,1310.771240 652.510193,1309.653198 
	C668.599304,1308.584595 684.544312,1306.380371 700.471619,1304.284424 
	C718.051697,1301.971069 735.533569,1298.692749 753.034607,1295.702515 
	C778.197876,1291.403198 803.147888,1286.255859 828.007019,1280.530396 
	C853.304138,1274.703979 878.477051,1268.396729 903.494507,1261.480225 
	C934.907471,1252.795898 966.130554,1243.466309 996.993530,1232.980957 
	C1035.553467,1219.880493 1073.912354,1206.223145 1111.496460,1190.491699 
	C1142.549072,1177.494141 1173.533447,1164.387573 1204.101074,1150.218140 
	C1241.074829,1133.079224 1277.231323,1114.406128 1312.903076,1094.823364 
	C1338.553589,1080.741943 1363.769897,1065.776123 1387.546143,1048.563721 
	C1390.783813,1046.219849 1393.596436,1043.583252 1395.957275,1040.467651 
	C1397.761230,1038.087036 1399.797241,1037.494019 1402.502319,1038.493530 
	C1408.990601,1040.891113 1415.872314,1041.285522 1422.474731,1040.325806 
	C1432.648438,1038.846924 1439.689697,1032.300171 1443.402954,1022.961426 
	C1450.375732,1005.425415 1435.801636,987.799866 1422.012939,985.424866 
	C1404.921997,982.481262 1391.971069,993.081726 1388.281372,1009.064941 
	C1387.078979,1014.274231 1388.557007,1020.375671 1391.499023,1025.500488 
	C1393.839111,1029.576782 1396.833130,1033.313477 1398.000000,1038.000000 
"/>
<path fill="none" opacity="1.000000" stroke="#000000" stroke-linecap="round" stroke-linejoin="round" stroke-width="15.000000"
	d="
M1387.500000,1009.000000 
	C1382.662476,1007.192078 1377.373901,1008.230286 1372.478149,1006.564209 
	C1370.418457,1005.863159 1368.534180,1007.557129 1367.061890,1008.588257 
	C1344.398804,1024.461792 1320.647461,1038.662842 1296.381104,1051.780151 
	C1262.230347,1070.240479 1227.963013,1088.583130 1192.492310,1104.482910 
	C1168.866089,1115.073242 1145.420776,1126.126587 1121.440552,1135.853394 
	C1085.272705,1150.523926 1049.077759,1165.129150 1012.063110,1177.686157 
	C982.155151,1187.832153 952.166870,1197.675537 922.000427,1207.001343 
	C896.568665,1214.863647 870.855957,1221.705444 844.992798,1227.970215 
	C821.026489,1233.775879 797.054382,1239.578491 772.981567,1244.916870 
	C755.943726,1248.695068 738.775024,1251.895264 721.508606,1254.556030 
	C710.462708,1256.257935 699.560181,1258.984253 688.482727,1260.361084 
	C677.814636,1261.686890 667.181213,1263.322510 656.493835,1264.440918 
	C641.518250,1266.007935 626.500671,1267.174316 611.499817,1268.498047 
	C594.523254,1269.996094 577.494324,1269.804199 560.502197,1269.406494 
	C530.860352,1268.712769 501.536285,1265.397217 473.526398,1254.929321 
	C458.460297,1249.298828 444.698181,1241.816772 434.831512,1228.121338 
	C427.979004,1218.609619 426.640930,1208.278809 427.668152,1197.515991 
	C428.798889,1185.668701 434.569427,1175.360229 440.992340,1165.494995 
	C452.854675,1147.274902 468.141541,1132.125977 484.009644,1117.510498 
	C506.567017,1096.733887 531.849121,1079.614624 557.500000,1063.000000 
"/>
<path fill="none" opacity="1.000000" stroke="#000000" stroke-linecap="round" stroke-linejoin="round" stroke-width="15.000000"
	d="
M1365.750000,1102.000000 
	C1359.659180,1115.686401 1360.004883,1130.758179 1356.492065,1144.998047 
	C1353.179321,1158.427734 1349.811523,1171.839233 1345.523560,1185.007690 
	C1340.160400,1201.477417 1333.586548,1217.431885 1326.029785,1233.014404 
	C1315.807007,1254.094604 1303.902344,1274.142212 1289.998657,1292.999023 
	C1272.022949,1317.378418 1251.348267,1339.175781 1228.028198,1358.534058 
	C1198.109619,1383.369629 1165.296509,1403.471313 1129.451050,1418.382202 
	C1105.320190,1428.420166 1080.250977,1435.608643 1054.518311,1440.594849 
	C1027.057617,1445.915894 999.398499,1448.476929 971.506958,1447.330078 
	C958.819031,1446.808350 946.132080,1445.397461 933.477905,1443.661011 
	C906.927795,1440.017578 881.150635,1433.606812 856.003845,1424.489380 
	C844.406433,1420.284424 833.200989,1415.161377 821.976379,1410.051880 
	C794.410461,1397.503418 769.389648,1380.862549 745.604614,1362.365479 
	C736.977722,1355.656616 728.366638,1348.699463 721.055725,1340.450562 
	C718.270325,1337.307983 714.955994,1335.813965 711.000000,1335.250000 
"/>
<path fill="none" opacity="1.000000" stroke="#000000" stroke-linecap="round" stroke-linejoin="round" stroke-width="15.000000"
	d="
M860.500000,681.500000 
	C848.936035,678.327026 840.336487,685.903931 831.077820,690.168884 
	C814.477539,697.815796 798.316528,706.346619 782.920532,716.378052 
	C765.892944,727.472473 749.799805,739.629761 734.416138,752.902832 
	C718.337219,766.775879 704.038025,782.260681 690.544128,798.536621 
	C680.227844,810.979797 671.024658,824.260559 662.501404,838.000854 
	C651.271606,856.104492 641.271118,874.862000 633.027771,894.511658 
	C623.198120,917.942444 615.437500,941.995605 610.321899,966.963501 
	C607.935791,978.609375 605.876343,990.298157 604.146851,1002.021667 
	C602.613098,1012.418335 602.208984,1022.992065 601.539551,1033.502563 
	C601.009583,1041.823364 599.725647,1050.312500 600.798767,1058.460693 
	C601.966919,1067.330200 601.221313,1076.168823 602.202209,1085.032959 
	C603.624207,1097.882568 604.833130,1110.764771 607.071655,1123.487427 
	C611.598877,1149.217407 618.612244,1174.283447 628.513672,1198.494385 
	C632.326721,1207.817993 636.220459,1217.088623 640.852234,1226.076172 
	C643.517273,1231.247437 646.954590,1233.479370 652.500000,1233.000000 
"/>
<path fill="none" opacity="1.000000" stroke="#000000" stroke-linecap="round" stroke-linejoin="round" stroke-width="15.000000"
	d="
M1107.000000,679.750000 
	C1109.552979,679.470215 1111.963013,679.468140 1114.524414,680.435425 
	C1138.336304,689.427856 1161.388550,700.254333 1182.856812,713.728149 
	C1213.991455,733.268738 1242.455688,756.314392 1267.072632,783.935242 
	C1286.449463,805.676575 1303.435669,829.030029 1317.475708,854.513367 
	C1330.191162,877.592834 1340.352905,901.782288 1347.968018,927.009644 
	C1351.733276,939.483154 1355.234985,952.018311 1357.190063,964.971313 
	C1357.661011,968.091431 1357.774902,970.448975 1356.066772,973.043945 
	C1355.480469,973.934387 1355.666748,975.333313 1355.500000,976.500000 
"/>
<path fill="none" opacity="1.000000" stroke="#000000" stroke-linecap="round" stroke-linejoin="round" stroke-width="16.000000"
	d="
M1185.750000,1075.500000 
	C1186.101196,1071.678955 1189.418335,1069.281006 1189.763550,1065.021362 
	C1190.579468,1054.954834 1190.706299,1045.047363 1189.601807,1034.988770 
	C1187.970825,1020.137329 1183.072510,1006.456909 1175.942139,993.531921 
	C1170.682129,983.997314 1163.687012,975.637512 1155.910645,968.092041 
	C1150.771973,963.105774 1148.037964,957.863220 1148.383423,950.494507 
	C1149.055420,936.158691 1148.766113,921.842041 1144.080322,907.972839 
	C1143.187012,905.328796 1144.386108,901.356628 1142.819336,899.667725 
	C1135.734131,892.031067 1130.577026,882.868530 1122.616699,875.867310 
	C1112.994751,867.404663 1101.795776,861.889587 1090.429077,856.653931 
	C1085.749512,854.498657 1083.004761,850.955505 1081.129517,846.939575 
	C1075.179565,834.197571 1064.903198,825.303040 1055.027710,815.970642 
	C1053.193237,814.236938 1050.941162,814.979614 1048.975220,814.646484 
	C1042.708740,813.584656 1036.340210,812.691650 1029.998535,812.601074 
	C1017.632141,812.424255 1006.547668,816.154785 997.479736,824.979187 
	C995.788391,826.625122 994.054443,828.630066 991.953430,829.367371 
	C987.719055,830.853333 987.315308,833.741760 987.444885,837.501892 
	C987.651367,843.494812 987.445190,849.500610 987.511841,855.499878 
	C987.637695,866.833618 988.173584,878.173706 987.939941,889.498779 
	C987.025330,933.831726 987.997437,978.170349 987.370422,1022.498169 
	C987.151184,1038.000366 986.849182,1053.507812 987.128418,1068.997681 
	C987.335876,1080.499512 987.806885,1092.014771 987.393127,1103.496094 
	C986.858398,1118.336182 987.095154,1133.166992 987.095703,1148.000000 
	C987.095764,1150.585205 985.372620,1152.532227 985.500000,1155.000000 
"/>
<path fill="none" opacity="1.000000" stroke="#000000" stroke-linecap="round" stroke-linejoin="round" stroke-width="13.000000"
	d="
M980.000000,362.500000 
	C977.666687,360.833344 975.344360,359.150909 972.998047,357.502777 
	C962.479065,350.114075 947.607117,351.008759 938.483459,358.981049 
	C934.606384,362.368835 930.805969,365.753235 928.480652,370.490509 
	C927.028748,373.448547 924.218201,375.145752 921.464478,376.423462 
	C911.230591,381.171722 903.422485,388.350922 898.533691,398.516205 
	C895.355469,405.124756 895.461121,412.411865 895.092896,419.504822 
	C894.859436,424.002625 893.619019,427.661774 890.544800,431.040741 
	C874.547241,448.624207 868.337280,469.222076 873.672302,492.460449 
	C876.515686,504.845642 883.106140,515.777222 893.117798,523.853943 
	C898.256409,527.999451 900.332520,533.429626 901.290649,539.035767 
	C902.948853,548.737610 908.502380,554.985840 916.536682,559.433716 
	C923.067017,563.049011 927.868958,567.850525 931.665222,574.404297 
	C936.645264,583.001770 943.456848,590.106140 954.002380,591.986633 
	C960.170166,593.086487 966.213196,592.205017 971.412048,588.863220 
	C974.432922,586.921387 977.592590,585.138916 980.500000,583.000000 
"/>
<path fill="none" opacity="1.000000" stroke="#000000" stroke-linecap="round" stroke-linejoin="round" stroke-width="15.000000"
	d="
M803.000000,762.500000 
	C808.422546,769.484131 810.739868,778.166565 815.568726,785.454468 
	C816.657593,787.097656 815.695007,788.257690 815.427917,789.484314 
	C814.236145,794.958313 814.514587,800.482422 814.505554,806.000000 
	C814.476318,823.963135 808.904602,840.168213 798.994812,854.996521 
	C796.195251,859.185730 793.132874,863.215820 790.590210,867.552856 
	C789.435852,869.521912 789.535339,871.500305 791.903320,873.608582 
	C802.589111,883.122375 814.753662,890.537781 826.633118,898.296143 
	C829.943542,900.458191 830.776733,902.163086 830.007812,905.501770 
	C827.128479,918.003296 825.570923,930.641846 825.983337,943.500549 
	C826.224365,951.016663 824.382202,957.361145 818.640259,963.139404 
	C803.607605,978.267090 793.155945,996.318115 787.505920,1017.001648 
	C785.538696,1024.203369 784.179749,1031.537964 784.066345,1039.000977 
	C783.984741,1044.366211 782.682495,1049.581543 782.930847,1055.003174 
	C784.177307,1082.205566 789.909058,1107.826172 806.899719,1130.076538 
	C812.938721,1137.985107 820.188782,1144.530518 827.616943,1150.862793 
	C832.388184,1154.930054 834.412415,1159.507446 835.096863,1165.488892 
	C836.181335,1174.966675 840.301208,1183.619751 843.552979,1192.480591 
	C844.575562,1195.267090 847.929932,1195.360474 850.000000,1197.000000 
"/>
<path fill="none" opacity="1.000000" stroke="#000000" stroke-linecap="round" stroke-linejoin="round" stroke-width="15.000000"
	d="
M1265.000000,1237.000000 
	C1256.975220,1234.920654 1250.268311,1238.453979 1244.044434,1242.567261 
	C1219.417603,1258.842651 1193.200562,1271.801758 1164.970459,1280.403076 
	C1150.197144,1284.904419 1135.073364,1287.870361 1119.509644,1288.684082 
	C1112.841309,1289.032593 1106.171753,1289.257690 1099.503052,1289.566772 
	C1095.699463,1289.743164 1092.552612,1291.369263 1090.453857,1294.973145 
	C1085.261475,1303.888550 1080.185669,1312.904663 1074.417725,1321.444336 
	C1065.716797,1334.326904 1055.621582,1346.155640 1044.972046,1357.473755 
	C1037.785400,1365.111572 1030.274048,1372.443237 1023.023315,1380.022217 
	C1018.989929,1384.238403 1016.287842,1389.264648 1015.000000,1395.000000 
"/>
<path fill="none" opacity="1.000000" stroke="#000000" stroke-linecap="round" stroke-linejoin="round" stroke-width="15.000000"
	d="
M1314.750000,1131.000000 
	C1309.368774,1137.356323 1309.633545,1145.591553 1307.565430,1153.018188 
	C1300.601074,1178.027222 1293.858154,1203.073730 1276.597656,1223.582153 
	C1275.602417,1224.764648 1274.388550,1225.793945 1273.373779,1226.882324 
	C1268.287964,1232.337891 1265.154663,1238.151123 1265.297729,1246.003662 
	C1265.389648,1251.052490 1262.062134,1255.392090 1259.025757,1259.518921 
	C1243.055420,1281.224731 1225.166870,1301.047241 1204.638794,1318.661743 
	C1190.924683,1330.429443 1176.750610,1341.502441 1161.406982,1350.847290 
	C1140.221680,1363.750122 1118.165649,1375.031982 1094.535034,1383.102417 
	C1076.196167,1389.365723 1057.674438,1394.627441 1038.500000,1397.500122 
	C1031.222168,1398.590454 1023.913696,1399.855591 1017.012390,1395.978027 
	C1014.803650,1394.736694 1012.894043,1395.528198 1011.007263,1396.513794 
	C993.738831,1405.535522 976.604431,1403.680420 959.483093,1396.037842 
	C957.761780,1395.269653 956.501404,1394.343018 955.997131,1392.500732 
	C954.493225,1387.006592 951.131958,1382.772827 947.011047,1378.987915 
	C927.829468,1361.370850 913.150452,1340.280273 899.967163,1318.019409 
	C896.690002,1312.485718 893.307617,1307.033203 891.000000,1301.000000 
"/>
<path fill="none" opacity="1.000000" stroke="#000000" stroke-linecap="round" stroke-linejoin="round" stroke-width="13.000000"
	d="
M1030.000000,563.000000 
	C1035.199463,560.898926 1040.333252,558.720947 1045.021851,555.532104 
	C1054.255737,549.251892 1057.115723,539.514221 1059.468140,529.492493 
	C1060.243408,526.189453 1061.747314,523.695862 1064.434082,521.422119 
	C1075.001953,512.479065 1081.921753,500.882416 1084.298462,487.464294 
	C1087.921997,467.006775 1083.545898,448.108948 1068.917725,432.577454 
	C1065.023926,428.443176 1063.279541,424.159149 1062.854614,418.510925 
	C1061.870483,405.429291 1059.182495,392.815002 1048.005127,383.993469 
	C1046.799927,383.042297 1045.816406,381.679382 1044.475342,381.052795 
	C1036.710449,377.425140 1031.713745,370.970917 1026.393555,364.588745 
	C1019.004883,355.725281 1009.637573,350.879730 997.483826,352.902985 
	C992.685852,353.701721 989.326050,356.563690 985.426208,358.875488 
	C980.888428,361.565430 979.885071,365.014954 979.896484,370.000244 
	C980.050903,437.166534 980.009644,504.333344 979.964539,571.500000 
	C979.962769,574.166870 981.028137,576.750183 980.093872,579.531555 
	C979.542786,581.172119 980.486023,582.743225 981.970947,584.033447 
	C997.619263,597.630493 1011.686279,592.980835 1022.541626,579.533630 
	C1026.402954,574.750366 1027.683716,568.919434 1030.000000,563.500000 
"/>
<path fill="none" opacity="1.000000" stroke="#000000" stroke-linecap="round" stroke-linejoin="round" stroke-width="15.000000"
	d="
M866.500000,1129.500000 
	C864.831970,1149.821899 881.793091,1167.353760 898.002747,1170.987671 
	C913.255859,1174.406860 926.388245,1170.447632 938.056152,1160.063110 
	C950.606079,1148.893677 954.785095,1134.815063 951.784241,1119.041016 
	C948.950928,1104.147461 939.680298,1093.382080 925.483826,1087.539185 
	C898.153015,1076.290771 871.675232,1093.890991 866.564758,1121.012207 
	C866.079468,1123.587402 866.500000,1126.333374 866.500000,1129.000000 
"/>
<path fill="none" opacity="1.000000" stroke="#000000" stroke-linecap="round" stroke-linejoin="round" stroke-width="15.000000"
	d="
M1297.000000,762.500000 
	C1303.592896,765.616272 1310.382202,763.578491 1316.990356,762.905823 
	C1342.615479,760.297363 1368.302490,760.261292 1393.999634,760.529541 
	C1414.362061,760.742065 1434.471924,763.007324 1454.536499,766.807129 
	C1475.625610,770.800903 1495.935913,777.136902 1514.864258,786.766907 
	C1534.417114,796.714661 1551.126343,810.703308 1559.363281,832.052734 
	C1563.347046,842.378235 1564.793579,853.300964 1562.593018,864.518250 
	C1561.539429,869.888489 1561.446655,875.501587 1558.936523,880.467896 
	C1557.084717,884.131348 1558.262695,887.500000 1559.000000,891.000000 
"/>
<path fill="none" opacity="1.000000" stroke="#000000" stroke-linecap="round" stroke-linejoin="round" stroke-width="15.000000"
	d="
M1167.500000,762.000000 
	C1173.454346,761.965027 1178.511963,764.684082 1182.939331,768.079102 
	C1199.832642,781.033081 1216.124756,794.755615 1230.438354,810.555786 
	C1248.725708,830.742371 1265.075562,852.393860 1278.022339,876.487976 
	C1288.105347,895.252502 1296.668457,914.658752 1302.928345,935.022034 
	C1304.821533,941.179993 1305.429199,947.611511 1303.500000,954.000000 
"/>
<path fill="none" opacity="1.000000" stroke="#000000" stroke-linecap="round" stroke-linejoin="round" stroke-width="15.000000"
	d="
M1517.000000,868.000000 
	C1515.181885,860.587891 1517.732910,852.899353 1515.515015,845.495544 
	C1512.149780,834.262451 1504.938477,826.048279 1495.504517,819.493591 
	C1478.037720,807.357788 1457.900757,802.715271 1437.488281,799.065308 
	C1422.305542,796.350464 1406.947388,795.396179 1391.506714,794.821106 
	C1375.127686,794.211121 1358.830444,795.010803 1342.499146,795.471008 
	C1339.942627,795.543091 1337.539917,796.374451 1335.019531,796.667908 
	C1331.149170,797.118652 1327.566406,796.936340 1324.000000,795.500000 
"/>
<path fill="none" opacity="1.000000" stroke="#000000" stroke-linecap="round" stroke-linejoin="round" stroke-width="15.000000"
	d="
M920.500000,711.000000 
	C910.233337,710.509216 900.680176,713.241638 890.934814,716.291748 
	C876.276733,720.879456 862.014038,726.404358 848.063660,732.642395 
	C835.753174,738.147217 823.748901,744.438049 812.503235,752.004822 
	C808.523987,754.682312 806.181091,759.799805 802.314941,761.603333 
	C798.094604,763.572144 793.053040,764.452881 789.053284,767.081116 
	C778.229858,774.193237 768.345947,782.560486 759.035461,791.536804 
	C745.345581,804.735107 731.903625,818.203369 720.522278,833.516541 
	C708.830505,849.247437 697.960388,865.536011 689.048950,883.024963 
	C684.109375,892.719238 679.432068,902.564697 675.095093,912.541321 
	C672.792908,917.837524 670.728210,923.422119 672.440308,929.516785 
	C672.753296,930.630859 672.745361,931.908569 671.538269,933.040771 
	C663.195923,940.865479 661.473145,951.776489 658.573975,962.020935 
	C654.084778,977.883911 651.372131,994.181885 649.679382,1010.518616 
	C647.582886,1030.751953 646.814392,1051.135376 647.573608,1071.497314 
	C647.996887,1082.845947 648.922485,1094.192383 650.112061,1105.488159 
	C650.637512,1110.477539 652.429993,1115.374023 655.541626,1119.468384 
	C658.714539,1123.643311 660.548767,1127.507080 658.175415,1133.074829 
	C655.976440,1138.233398 657.966614,1143.746826 659.485168,1149.004272 
	C665.930725,1171.320190 674.033203,1192.965332 684.916687,1213.544067 
	C686.469482,1216.480103 688.164856,1219.260986 689.977661,1222.014648 
	C691.375671,1224.138428 690.967529,1226.623657 691.000000,1229.000000 
"/>
<path fill="none" opacity="1.000000" stroke="#000000" stroke-linecap="round" stroke-linejoin="round" stroke-width="15.000000"
	d="
M956.500000,1395.500000 
	C949.608826,1400.580444 941.629211,1400.037598 934.021667,1398.860229 
	C916.855835,1396.203369 900.017151,1391.837769 883.523376,1386.428711 
	C853.536804,1376.594238 825.508789,1362.489624 799.122681,1345.311523 
	C792.320740,1340.883301 784.937195,1336.329956 781.045532,1328.477417 
	C780.547852,1327.473022 780.052856,1327.187134 779.011658,1326.948975 
	C774.816833,1325.988892 770.666687,1324.833252 766.500000,1323.749878 
"/>
<path fill="none" opacity="1.000000" stroke="#000000" stroke-linecap="round" stroke-linejoin="round" stroke-width="15.000000"
	d="
M894.500000,958.000000 
	C914.734863,957.075256 931.657471,974.134399 935.033264,990.993347 
	C940.026978,1015.932190 926.438843,1040.381348 898.428955,1046.155396 
	C886.744995,1048.563965 875.215637,1044.451416 865.461365,1036.547729 
	C845.880798,1020.682007 846.728760,985.130432 866.491333,967.989990 
	C874.404846,961.126404 883.399170,957.389404 894.000000,958.000000 
"/>
<path fill="none" opacity="1.000000" stroke="#000000" stroke-linecap="round" stroke-linejoin="round" stroke-width="15.000000"
	d="
M987.500000,832.000000 
	C983.529419,829.747925 980.232971,826.613953 977.040894,823.458618 
	C967.080444,813.612854 954.766174,810.925598 941.508301,812.094421 
	C924.123535,813.626953 910.787903,822.752563 900.013367,836.010864 
	C897.091858,839.605896 893.992554,843.124512 891.585632,847.052490 
	C888.515869,852.062195 884.220520,855.196594 879.010254,857.522949 
	C862.423096,864.928955 848.169983,875.113159 838.379456,890.925354 
	C836.266785,894.337280 833.631165,897.753479 830.000000,900.000000 
"/>
<path fill="none" opacity="1.000000" stroke="#000000" stroke-linecap="round" stroke-linejoin="round" stroke-width="15.000000"
	d="
M1137.500000,1209.750000 
	C1130.089722,1215.761475 1122.464111,1221.428223 1113.502319,1225.005615 
	C1107.747437,1227.302979 1102.023804,1229.646729 1096.461426,1232.422729 
	C1092.603516,1234.347900 1089.955200,1236.902832 1088.460938,1240.985718 
	C1083.366089,1254.905884 1075.460693,1266.812134 1064.064453,1276.575195 
	C1048.010864,1290.328247 1015.848999,1292.290649 1001.974731,1277.022949 
	C1001.507263,1276.508545 1000.595703,1276.427368 1000.010681,1275.985840 
	C991.487610,1269.554077 991.441162,1269.465088 982.513489,1275.021606 
	C972.219238,1281.428711 961.296753,1285.540039 949.004944,1286.106812 
	C942.063354,1286.426880 935.217102,1287.072510 928.500000,1284.750000 
"/>
<path fill="none" opacity="1.000000" stroke="#000000" stroke-linecap="round" stroke-linejoin="round" stroke-width="15.000000"
	d="
M1104.000000,1026.000000 
	C1099.840942,1017.654236 1095.786499,1009.379395 1088.563721,1002.928650 
	C1071.770142,987.930115 1047.381226,991.127319 1035.506592,1012.003723 
	C1028.413696,1024.473267 1028.301758,1037.545044 1034.706177,1049.893066 
	C1040.612061,1061.279297 1050.005371,1068.717773 1064.000610,1068.558838 
	C1084.205688,1068.329224 1096.551758,1057.932007 1100.091187,1038.016235 
	C1100.792358,1034.070435 1102.666748,1030.333374 1104.000000,1026.500000 
"/>
<path fill="none" opacity="1.000000" stroke="#000000" stroke-linecap="round" stroke-linejoin="round" stroke-width="12.000000"
	d="
M930.000000,439.000000 
	C918.040955,439.964325 909.797546,446.153931 905.015869,457.006989 
	C897.716553,473.574188 912.103149,491.522125 928.493652,492.161896 
	C945.111389,492.810547 960.757141,476.246338 955.539856,458.488281 
	C952.854858,449.349274 945.613525,440.344971 933.500916,439.487396 
	C932.494141,439.416138 931.500000,439.166656 930.500000,439.000000 
"/>
<path fill="none" opacity="1.000000" stroke="#000000" stroke-linecap="round" stroke-linejoin="round" stroke-width="15.000000"
	d="
M918.000000,869.500000 
	C907.460938,870.255127 899.791809,876.370300 895.760742,885.120117 
	C888.283020,901.351562 897.909119,919.159180 915.009705,922.449646 
	C931.477905,925.618347 945.228943,912.884033 946.556946,898.005066 
	C947.781738,884.282898 935.869934,870.457153 922.000549,869.983154 
	C920.829529,869.943237 919.666687,869.666687 918.500000,869.500000 
"/>
<path fill="none" opacity="1.000000" stroke="#000000" stroke-linecap="round" stroke-linejoin="round" stroke-width="16.000000"
	d="
M944.500000,725.000000 
	C946.993835,730.831299 942.595154,734.448547 939.952820,738.468994 
	C931.244934,751.718140 922.218201,764.758179 913.555664,778.036316 
	C910.013855,783.465271 905.582336,785.817261 898.996460,785.613831 
	C886.341858,785.222961 873.666504,785.536560 861.000122,785.477051 
	C857.332703,785.459778 853.666931,785.031311 849.999939,785.025269 
	C838.813293,785.006897 827.597656,784.458130 816.500000,786.500000 
"/>
<path fill="none" opacity="1.000000" stroke="#000000" stroke-linecap="round" stroke-linejoin="round" stroke-width="15.000000"
	d="
M1048.000000,711.500000 
	C1058.155029,709.433044 1067.186890,713.942078 1076.484619,716.554871 
	C1103.356689,724.106262 1128.594971,735.589661 1152.997803,749.004089 
	C1153.848755,749.471863 1154.812622,749.855408 1155.475342,750.524475 
	C1158.804688,753.885864 1164.105225,755.645935 1165.794189,760.078430 
	C1167.889648,765.578247 1162.057495,768.695129 1159.975830,772.988281 
	C1158.090210,776.877136 1156.165771,780.767822 1153.918701,784.450439 
	C1153.015259,785.931091 1153.093872,786.918152 1153.396606,788.519531 
	C1154.390503,793.776794 1154.727295,799.119751 1154.520752,804.500793 
	C1153.690308,826.127197 1159.741577,845.699158 1171.916382,863.556946 
	C1174.490356,867.332397 1175.015503,873.098938 1178.280762,875.639099 
	C1181.457397,878.110107 1186.565674,878.681641 1189.952759,881.555603 
	C1199.587402,889.730347 1209.069824,898.088623 1218.485474,906.516174 
	C1238.678711,924.590027 1260.699219,939.869873 1285.485474,951.032349 
	C1290.146484,953.131409 1294.870728,954.520325 1299.997437,953.975708 
	C1302.724731,953.686096 1304.508545,954.631226 1306.056885,956.962219 
	C1308.937012,961.298401 1311.005371,965.901672 1312.000854,970.999817 
	C1313.497681,978.667114 1315.236206,986.297913 1316.392822,994.016052 
	C1316.911255,997.475891 1317.346069,1001.401245 1314.918945,1004.435120 
	C1313.537842,1006.161560 1314.300293,1007.826721 1314.000000,1009.500000 
"/>
<path fill="none" opacity="1.000000" stroke="#000000" stroke-linecap="round" stroke-linejoin="round" stroke-width="15.000000"
	d="
M789.500000,871.500000 
	C780.282776,872.861206 773.965271,879.431396 767.085266,884.613220 
	C742.964905,902.780151 717.282959,918.168335 689.480774,929.954651 
	C684.242554,932.175293 678.718079,933.398682 673.000000,931.500000 
"/>
<path fill="none" opacity="1.000000" stroke="#000000" stroke-linecap="round" stroke-linejoin="round" stroke-width="15.000000"
	d="
M660.500000,1127.500000 
	C665.789062,1128.131836 670.602234,1129.333984 675.101746,1132.870483 
	C685.273193,1140.864990 694.991028,1149.413696 705.442444,1157.078491 
	C718.959717,1166.991577 731.926880,1177.639160 745.435303,1187.587769 
	C754.771912,1194.464233 763.500000,1202.166626 772.500000,1209.500000 
"/>
<path fill="none" opacity="1.000000" stroke="#000000" stroke-linecap="round" stroke-linejoin="round" stroke-width="15.000000"
	d="
M1112.250000,1106.000000 
	C1117.166626,1103.500000 1122.236328,1101.258057 1126.971069,1098.451172 
	C1140.789795,1090.258911 1146.836426,1077.935547 1145.485474,1062.001221 
	C1143.800293,1042.127441 1131.452026,1029.011353 1112.016235,1025.898560 
	C1109.398315,1025.479370 1107.000000,1025.998169 1104.500000,1026.000000 
"/>
<path fill="none" opacity="1.000000" stroke="#000000" stroke-linecap="round" stroke-linejoin="round" stroke-width="16.000000"
	d="
M1152.000000,786.500000 
	C1149.056885,785.655029 1146.046387,785.486023 1143.000000,785.488892 
	C1120.833374,785.509521 1098.666626,785.500000 1076.500000,785.500000 
	C1075.333374,785.500000 1074.157227,785.403137 1073.001587,785.515808 
	C1065.654541,786.232178 1064.299927,787.271240 1062.535278,794.508606 
	C1060.755981,801.806274 1057.051636,808.257202 1054.000000,815.000000 
"/>
<path fill="none" opacity="1.000000" stroke="#000000" stroke-linecap="round" stroke-linejoin="round" stroke-width="11.000000"
	d="
M1019.500000,440.000000 
	C1014.626404,440.556305 1009.731445,440.884644 1006.469421,445.478302 
	C1003.280518,449.969147 1001.749390,459.874908 1007.957703,465.546295 
	C1013.354614,470.476532 1021.274902,470.899292 1026.989746,465.988068 
	C1030.940674,462.592773 1034.123901,458.442627 1032.877930,453.028076 
	C1031.329956,446.301178 1026.936890,441.729797 1020.000000,440.000000 
"/>
<path fill="none" opacity="1.000000" stroke="#000000" stroke-linecap="round" stroke-linejoin="round" stroke-width="15.000000"
	d="
M1025.500000,726.000000 
	C1024.193115,730.324524 1026.140137,733.224609 1028.859009,736.613098 
	C1035.944702,745.443542 1042.410278,754.778625 1048.976318,764.016846 
	C1054.465820,771.740417 1058.990967,780.126709 1065.000000,787.500000 
"/>
<path fill="none" opacity="1.000000" stroke="#000000" stroke-linecap="round" stroke-linejoin="round" stroke-width="12.000000"
	d="
M944.500000,511.000000 
	C941.786072,512.174194 938.817017,511.305084 935.923584,512.857605 
	C927.709961,517.264526 924.274109,527.263916 928.547791,535.976562 
	C932.847290,544.741882 943.352051,548.028992 951.500000,543.500061 
	C958.123718,539.818298 961.993774,532.282166 960.435791,525.013733 
	C958.889099,517.797852 954.764038,512.940857 945.000000,511.000000 
"/>
<path fill="none" opacity="1.000000" stroke="#000000" stroke-linecap="round" stroke-linejoin="round" stroke-width="14.000000"
	d="
M1077.000000,1121.500000 
	C1072.086914,1121.029175 1067.967651,1117.897949 1063.003052,1117.465210 
	C1052.163208,1116.520508 1043.986694,1121.004150 1036.869873,1128.882446 
	C1033.960693,1132.103027 1032.518555,1136.348145 1029.000000,1139.000000 
"/>
<path fill="none" opacity="1.000000" stroke="#000000" stroke-linecap="round" stroke-linejoin="round" stroke-width="13.000000"
	d="
M1056.000000,455.500000 
	C1055.507812,461.545868 1057.832275,467.315430 1057.165283,473.517792 
	C1056.054443,483.844635 1050.081177,489.048798 1040.000000,490.250000 
"/>
<path fill="none" opacity="1.000000" stroke="#000000" stroke-linecap="round" stroke-linejoin="round" stroke-width="15.000000"
	d="
M808.500000,1182.500000 
	C808.584595,1186.814941 806.893616,1190.427124 803.986511,1193.487183 
	C801.552185,1196.049561 798.754700,1198.302246 796.548767,1201.039307 
	C791.195190,1207.682007 784.108276,1209.657471 775.999268,1209.599487 
	C774.930908,1209.591797 772.571228,1207.943970 772.500000,1211.000000 
"/>
<path fill="none" opacity="1.000000" stroke="#000000" stroke-linecap="round" stroke-linejoin="round" stroke-width="15.000000"
	d="
M1177.000000,876.000000 
	C1167.102173,885.515503 1156.868530,894.569153 1144.000000,900.000000 
"/>
<path fill="none" opacity="1.000000" stroke="#000000" stroke-linecap="round" stroke-linejoin="round" stroke-width="3.000000"
	d="
M699.500000,1226.500000 
	C696.702942,1226.695312 693.974548,1226.524658 691.500000,1225.000000 
"/>
<path fill="none" opacity="1.000000" stroke="#000000" stroke-linecap="round" stroke-linejoin="round" stroke-width="1.000000"
	d="
M1211.500122,469.500000 
	C1211.583374,470.166656 1211.666748,470.833313 1211.750122,471.500000 
"/>
<path fill="none" opacity="1.000000" stroke="#000000" stroke-linecap="round" stroke-linejoin="round" stroke-width="12.000000"
	d="
M1014.500000,388.000000 
	C1003.517761,391.893646 999.577637,399.432526 1002.425354,410.020081 
	C1004.172546,416.516388 1008.394348,420.227478 1014.523132,421.376587 
	C1021.038940,422.598297 1026.940430,420.742126 1030.987427,414.991119 
	C1034.921143,409.401062 1034.969238,403.409973 1031.948486,397.526459 
	C1028.463501,390.738892 1022.291992,388.258179 1015.000000,388.000000 
"/>
<path fill="none" opacity="1.000000" stroke="#000000" stroke-linecap="round" stroke-linejoin="round" stroke-width="15.000000"
	d="
M1504.000000,894.500000 
	C1500.018799,895.279602 1495.964722,895.452454 1491.985352,896.441223 
	C1472.627441,901.251465 1453.763306,922.424988 1459.462158,948.508301 
	C1463.457397,966.794556 1476.989258,981.438843 1494.517822,984.394226 
	C1520.565063,988.785950 1540.569580,973.364807 1545.874268,949.971497 
	C1551.639404,924.547180 1537.033081,903.520386 1513.979004,896.065063 
	C1510.965820,895.090576 1507.666626,895.000000 1504.500000,894.500000 
"/>
<path fill="none" opacity="1.000000" stroke="#000000" stroke-linecap="round" stroke-linejoin="round" stroke-width="14.000000"
	d="
M975.000000,285.500000 
	C969.740051,286.782684 964.333557,286.126617 958.975159,286.803436 
	C940.547668,289.130981 922.882568,294.043243 906.044800,301.599854 
	C886.776001,310.247406 869.090698,321.720551 854.121887,336.622437 
	C837.564087,353.106232 823.567200,371.574524 814.380432,393.449799 
	C809.114441,405.989105 804.663940,418.630798 801.902710,431.979858 
	C797.957642,451.052002 797.374634,470.114197 798.822449,489.513245 
	C800.349121,509.970062 805.872864,529.215820 813.549500,547.979736 
	C818.898315,561.053650 826.149780,573.185852 834.595276,584.428467 
	C849.268005,603.960815 866.930725,620.427795 888.012390,632.979187 
	C908.324036,645.072083 930.145691,653.091187 953.492615,657.043762 
	C966.443176,659.236206 979.521423,659.792969 992.486572,658.820679 
	C1011.774414,657.374207 1030.409668,652.842468 1048.566650,645.668518 
	C1074.690918,635.346619 1096.645142,619.417236 1115.445435,598.949890 
	C1131.955811,580.975769 1144.710693,560.546204 1152.973511,537.490479 
	C1159.747314,518.589539 1163.517944,499.073303 1164.525269,479.001282 
	C1165.470581,460.164124 1163.213135,441.738556 1158.545044,423.488464 
	C1148.999512,386.170532 1128.886353,355.672638 1100.059448,330.432129 
	C1084.177490,316.526093 1066.348267,305.956238 1046.947876,298.129303 
	C1032.417847,292.267365 1017.203674,288.604370 1001.512573,286.885132 
	C992.838684,285.934753 984.195679,285.497437 975.500000,285.500000 
"/>
<path fill="none" opacity="1.000000" stroke="#000000" stroke-linecap="round" stroke-linejoin="round" stroke-width="15.000000"
	d="
M1057.000000,888.500000 
	C1037.548706,891.516296 1028.090454,907.246277 1026.264038,920.002014 
	C1023.020569,942.655212 1043.747925,967.331116 1070.473267,958.915283 
	C1089.130981,953.039856 1097.835083,934.185791 1094.889160,917.019043 
	C1092.802246,904.858521 1085.712158,895.825378 1074.461304,890.582947 
	C1069.174805,888.119568 1063.268433,888.301453 1057.500000,888.500000 
"/>
<path fill="none" opacity="1.000000" stroke="#000000" stroke-linecap="round" stroke-linejoin="round" stroke-width="12.000000"
	d="
M939.000000,388.500000 
	C932.795288,390.628632 927.755615,393.545441 926.380249,400.977844 
	C924.748291,409.796692 927.257874,416.727203 935.035400,419.396912 
	C944.186035,422.537933 952.002502,419.575409 956.571533,412.043396 
	C962.136597,402.869293 954.520569,388.540283 943.000000,388.500519 
	C941.833313,388.496490 940.666687,388.500000 939.500000,388.500000 
"/>
<path fill="none" opacity="1.000000" stroke="#000000" stroke-linecap="round" stroke-linejoin="round" stroke-width="11.000000"
	d="
M1017.500000,500.500000 
	C1006.558594,502.635986 1002.463013,514.823853 1005.877686,524.045288 
	C1008.431030,530.940613 1016.403625,535.298706 1026.487549,531.962402 
	C1034.024048,529.468933 1038.632690,519.752014 1036.000000,512.500000 
	C1032.891724,503.938080 1027.734741,500.500000 1018.000000,500.500000 
"/>
<path fill="none" opacity="1.000000" stroke="#000000" stroke-linecap="round" stroke-linejoin="round" stroke-width="15.000000"
	d="
M1604.000000,684.500000 
	C1586.753540,686.767151 1574.177368,695.689758 1567.082642,711.537048 
	C1560.752075,725.677612 1561.730347,745.368713 1573.473267,759.023010 
	C1585.726807,773.270935 1601.525635,777.857788 1618.922729,773.210693 
	C1637.426880,768.267883 1650.476807,753.001038 1651.612305,732.506226 
	C1652.532104,715.903015 1645.936768,703.043640 1633.416626,693.105042 
	C1625.125977,686.523804 1615.138794,684.016602 1604.500000,684.500000 
"/>
<path fill="none" opacity="1.000000" stroke="#000000" stroke-linecap="round" stroke-linejoin="round" stroke-width="17.000000"
	d="
M967.500000,176.000000 
	C965.728210,176.843353 963.839966,176.448364 961.999817,176.491394 
	C939.083313,177.027267 916.268066,178.768463 893.488281,181.398590 
	C877.923706,183.195679 862.398376,185.087906 846.997375,187.986130 
	C828.347229,191.495804 809.820007,195.471161 791.478333,200.419769 
	C768.340393,206.662430 745.533447,213.800369 722.931213,221.805847 
	C705.393372,228.017563 688.021545,234.605331 671.052795,242.119278 
	C640.332397,255.722580 610.631836,271.323700 581.947266,288.914032 
	C552.386475,307.041718 524.154175,326.997772 497.025299,348.531860 
	C468.227295,371.390900 441.203339,396.265533 416.115875,423.108307 
	C398.271179,442.201538 381.426819,462.219818 365.439453,482.953308 
	C344.638641,509.929138 325.706329,538.155273 308.612640,567.565491 
	C295.914520,589.412964 284.202209,611.804016 273.866577,634.940430 
	C262.003021,661.497253 251.268829,688.424255 241.880737,715.959351 
	C231.985306,744.982422 224.413147,774.589600 218.127029,804.526672 
	C214.588486,821.378601 211.868607,838.440125 209.667450,855.521606 
	C208.259109,866.450562 207.357391,877.494629 206.274994,888.477844 
	C204.502350,906.465637 203.507309,924.498596 202.720215,942.509644 
	C202.001114,958.964539 202.028778,975.501953 203.352463,992.011841 
	C204.016800,1000.297913 203.994568,1008.669556 204.435928,1017.003418 
	C205.356918,1034.393921 206.668610,1051.765503 209.109726,1068.984497 
	C213.158142,1097.540894 217.941406,1125.956421 224.788986,1154.051392 
	C229.747787,1174.397095 235.291992,1194.547607 241.615646,1214.463257 
	C250.139557,1241.308472 260.807343,1267.348022 272.371979,1293.057617 
	C281.564423,1313.493286 291.544556,1333.462769 302.429199,1353.039307 
	C314.678955,1375.071045 328.164703,1396.275635 342.424225,1417.052002 
	C357.998901,1439.744629 374.557159,1461.694458 392.627747,1482.388428 
	C413.566833,1506.367432 435.691650,1529.251099 459.410248,1550.599731 
	C478.272766,1567.577759 497.842804,1583.681519 518.113403,1598.848389 
	C540.768250,1615.799194 564.480286,1631.221313 588.868835,1645.720703 
	C620.007812,1664.233398 652.349854,1680.178589 685.584351,1694.301514 
	C701.650757,1701.128906 718.304260,1706.677856 734.938049,1712.187012 
	C751.985840,1717.833618 769.105957,1723.060059 786.486145,1727.553711 
	C806.669067,1732.771606 826.982666,1737.359009 847.507812,1740.955566 
	C862.134277,1743.518433 876.785522,1746.051025 891.514587,1747.882690 
	C904.110779,1749.449341 916.851685,1749.811768 929.495667,1751.044189 
	C948.460266,1752.892578 967.507263,1753.351807 986.498230,1753.227905 
	C998.297119,1753.150879 1010.155884,1753.445312 1022.027832,1752.284668 
	C1031.772583,1751.331787 1041.675049,1751.114990 1051.497314,1750.459717 
	C1063.903320,1749.631958 1076.195068,1747.786255 1088.520020,1746.150757 
	C1103.263428,1744.194214 1117.942017,1741.980347 1132.492798,1738.965454 
	C1146.192871,1736.126709 1159.941284,1733.414917 1173.473145,1729.896851 
	C1191.082886,1725.318848 1208.688477,1720.569824 1225.953613,1714.859619 
	C1248.991333,1707.240112 1271.832275,1698.969482 1293.998047,1688.995605 
	C1306.305664,1683.457764 1318.425171,1677.531250 1330.573730,1671.652344 
	C1352.262939,1661.156494 1373.078247,1649.209351 1393.502930,1636.504761 
	C1411.228027,1625.479248 1428.143188,1613.302002 1445.079224,1601.109985 
	C1465.724121,1586.247681 1485.497559,1570.315552 1504.377319,1553.363403 
	C1521.992920,1537.546265 1538.854370,1520.866333 1555.017578,1503.516357 
	C1573.523804,1483.651367 1590.681396,1462.686401 1607.028809,1441.021729 
	C1627.063110,1414.471069 1645.279907,1386.713379 1661.891602,1357.937500 
	C1670.344482,1343.295044 1678.066406,1328.192749 1685.414917,1312.958984 
	C1699.685303,1283.375610 1712.587646,1253.184570 1722.963745,1221.987915 
	C1731.176270,1197.296021 1738.734253,1172.386597 1744.427002,1146.983643 
	C1749.317749,1125.160522 1753.409912,1103.181274 1756.620239,1081.017456 
	C1759.868774,1058.589844 1761.879150,1036.063232 1763.419922,1013.494507 
	C1765.158203,988.032043 1764.906860,962.494141 1764.351074,937.003235 
	C1763.947510,918.486633 1762.630737,899.955078 1760.847046,881.514771 
	C1759.519287,867.788269 1757.168335,854.138794 1755.213989,840.469421 
	C1751.743652,816.197571 1746.810791,792.263489 1740.907715,768.522949 
	C1737.064819,753.067688 1732.679932,737.724182 1727.897705,722.532227 
	C1723.547729,708.713379 1718.400879,695.142334 1713.481812,681.506531 
	C1708.101074,666.590454 1701.882812,652.015747 1695.559570,637.474121 
	C1688.714722,621.732971 1681.261230,606.271179 1673.336060,591.085571 
	C1666.470581,577.930664 1658.960571,565.073853 1651.060547,552.462036 
	C1641.976440,537.960022 1632.820190,523.522522 1623.036743,509.474396 
	C1612.206787,493.923431 1600.727539,478.853027 1588.899780,464.080231 
	C1577.095703,449.336853 1564.318970,435.393250 1551.555298,421.449341 
	C1530.801270,398.776154 1508.397217,377.866455 1484.972534,358.032440 
	C1466.820923,342.663269 1447.966675,328.148682 1428.443848,314.580811 
	C1407.965942,300.349213 1386.805054,287.157135 1365.022827,274.959320 
	C1334.965820,258.127747 1303.997803,243.249100 1272.000854,230.497757 
	C1242.916138,218.906952 1213.314453,208.798874 1182.970337,201.117065 
	C1162.124878,195.839890 1141.128296,190.937805 1119.962646,187.211914 
	C1100.136963,183.721893 1080.032104,181.697220 1059.992554,179.570480 
	C1029.423218,176.326248 998.718140,175.812943 968.000000,176.000000 
"/>
</svg>